<svg width="32" height="38" viewBox="0 0 32 38" fill="none" xmlns="http://www.w3.org/2000/svg">
<g clip-path="url(#clip0_2254_4002)">
<path d="M30.8117 11.6411C31.2968 11.8154 31.4199 12.2191 31.4191 12.7247C31.4113 17.3511 31.4067 21.9775 31.4052 26.604C31.4063 26.6237 31.4086 26.6434 31.4121 26.6629C31.3622 26.7618 31.414 26.8765 31.3707 26.9765C31.269 27.5205 31.101 28.0504 30.8703 28.5544C30.4467 29.4048 29.7835 30.116 28.9606 30.6023C27.6306 31.4268 26.3068 32.2631 24.9809 33.0953C23.5912 33.9676 22.2017 34.8402 20.8123 35.7131C19.922 36.2698 19.0481 36.858 18.1341 37.3695C18.0087 37.3968 17.8786 37.3944 17.7543 37.3627C17.6195 37.3213 17.4998 37.242 17.4099 37.1344C17.32 37.0268 17.2637 36.8956 17.248 36.7569C17.2124 36.3707 17.2347 35.9834 17.2336 35.5968C17.2301 34.3353 17.2329 33.0739 17.2313 31.8124C17.245 31.7041 17.2376 31.5942 17.2094 31.4887C17.2149 31.3801 17.2254 31.2715 17.2252 31.163C17.2188 27.695 17.2169 24.227 17.1975 20.759C17.1773 20.5637 17.2159 20.3668 17.3084 20.193C17.4009 20.0193 17.5432 19.8763 17.7174 19.7822C21.5764 17.3454 25.4208 14.8814 29.2677 12.4223C29.6637 12.1185 30.0906 11.8563 30.5414 11.6397C30.6293 11.6118 30.724 11.6123 30.8117 11.6411Z" fill="#FEB000"/>
<path d="M2.93358 12.4931C3.07607 12.6196 3.24008 12.7201 3.41801 12.7901C3.51062 12.8034 3.59902 12.8371 3.67671 12.8887C3.75441 12.9403 3.81942 13.0085 3.86695 13.0882C3.89084 13.1214 3.92161 13.1493 3.95723 13.1699C3.99284 13.1905 4.03249 13.2033 4.07351 13.2076C4.33614 13.2791 4.5693 13.4306 4.73989 13.6406C4.80493 13.7266 4.90064 13.7848 5.00756 13.8035C5.10028 13.8177 5.18872 13.8518 5.26658 13.9036C5.34444 13.9554 5.4098 14.0235 5.45803 14.103C5.60044 14.2299 5.76469 14.3305 5.94299 14.4C6.03545 14.4137 6.12366 14.4476 6.20121 14.4992C6.27876 14.5508 6.34369 14.6189 6.39128 14.6985C6.41511 14.732 6.44599 14.7599 6.48181 14.7805C6.51763 14.8011 6.55753 14.8137 6.59877 14.8175C6.76203 14.8942 6.95563 14.9171 7.04931 15.1174C7.19179 15.2438 7.35575 15.3443 7.53362 15.4143C7.62632 15.4275 7.71481 15.4612 7.79254 15.5128C7.87027 15.5645 7.93522 15.6328 7.98259 15.7127C8.16399 15.8627 8.36469 15.9882 8.57943 16.0861C8.63849 16.0841 8.69673 16.1002 8.74618 16.1322C8.79563 16.1641 8.83385 16.2105 8.85562 16.2648C8.92061 16.3508 9.01635 16.4091 9.12329 16.4277C9.21601 16.4418 9.30445 16.476 9.38231 16.5278C9.46018 16.5795 9.52555 16.6476 9.57377 16.7272C9.71603 16.854 9.88004 16.9547 10.0581 17.0245C10.1507 17.0379 10.2391 17.0716 10.3168 17.1232C10.3945 17.1748 10.4595 17.2429 10.507 17.3226C10.531 17.3558 10.5618 17.3836 10.5974 17.4042C10.633 17.4248 10.6726 17.4377 10.7136 17.442C10.976 17.5138 11.2091 17.665 11.3801 17.8745C11.4449 17.961 11.541 18.0195 11.6483 18.0378C11.7408 18.0523 11.829 18.0866 11.9067 18.1383C11.9844 18.19 12.0498 18.2578 12.0983 18.3371C12.2796 18.4871 12.4804 18.6126 12.6952 18.7103C12.7543 18.7082 12.8126 18.7243 12.862 18.7564C12.9115 18.7884 12.9497 18.8349 12.9713 18.8893C13.0364 18.9751 13.1321 19.0332 13.2389 19.052C13.3317 19.0659 13.4203 19.1 13.4982 19.1519C13.5761 19.2037 13.6414 19.272 13.6894 19.3518C13.8319 19.4782 13.9959 19.5787 14.1739 19.6487C14.2672 19.6612 14.3562 19.6951 14.4339 19.7478C14.5115 19.8004 14.5756 19.8704 14.6209 19.9519C14.813 20.1762 14.911 20.4647 14.8948 20.7581C14.8948 22.0965 14.9032 23.4349 14.9085 24.7733C14.9289 24.8602 14.9346 24.9499 14.9252 25.0386C14.9259 28.8768 14.9259 32.715 14.9251 36.5531C14.9361 36.6417 14.9294 36.7315 14.9056 36.8176C14.8066 37.051 14.6295 37.2436 14.4039 37.3633C14.2791 37.3967 14.1475 37.3967 14.0226 37.3634C13.6474 37.2135 13.2951 37.0127 12.9759 36.7667C12.0959 36.2442 11.2353 35.683 10.3687 35.1338C9.47101 34.5649 8.57792 33.9875 7.67839 33.4222C6.56789 32.7242 5.44873 32.0425 4.34131 31.3389C3.70848 30.9714 3.09631 30.57 2.50752 30.1368C1.90862 29.6394 1.44488 29.0019 1.15844 28.2822C0.948736 27.8123 0.822663 27.31 0.78577 26.7976C0.766308 26.7104 0.760925 26.6208 0.76982 26.5319C0.769192 21.8594 0.76921 17.1869 0.769875 12.5143C0.760179 12.4256 0.766041 12.3359 0.787201 12.2491C0.809052 12.1416 0.85675 12.0409 0.926265 11.9555C0.99578 11.87 1.08507 11.8024 1.18659 11.7583C1.2881 11.7142 1.39887 11.6949 1.50952 11.702C1.62017 11.7092 1.72745 11.7425 1.82231 11.7993C2.06933 11.9415 2.30747 12.1018 2.5496 12.254C2.62989 12.254 2.70855 12.2764 2.77649 12.3187C2.84444 12.361 2.8989 12.4215 2.93358 12.4931Z" fill="#FE005F"/>
<path d="M12.2113 15.5353L11.7242 15.2022C11.5233 15.219 11.428 15.0247 11.2784 14.9389L10.9055 14.6861C10.6888 14.6283 10.4941 14.5088 10.3455 14.3425L9.97153 14.0902C9.79009 14.0579 9.62854 13.9569 9.52122 13.8087L9.22893 13.6239C8.98157 13.5469 8.7601 13.4048 8.58829 13.2127C8.46992 13.158 8.36141 13.0845 8.26708 12.9952C8.06596 13.0125 7.97074 12.8178 7.82111 12.7321L7.33392 12.3999C7.13338 12.4155 7.03784 12.2217 6.88821 12.1359L6.51449 11.8834C6.33297 11.8513 6.1713 11.7504 6.06398 11.6021L5.46749 11.2095C5.39895 11.205 5.33255 11.1841 5.27395 11.1486C5.21536 11.1132 5.16632 11.0642 5.13104 11.0059C5.01269 10.9512 4.90421 10.8777 4.80988 10.7883C4.60865 10.806 4.51349 10.6111 4.36384 10.5255L3.87682 10.1924C3.67589 10.2092 3.58055 10.0149 3.43094 9.92907C3.2973 9.83638 3.15885 9.75067 3.01615 9.6723C2.90633 9.60599 2.81527 9.51327 2.75145 9.40277C2.68763 9.29228 2.65313 9.16761 2.65117 9.04037C2.6492 8.91314 2.67984 8.78749 2.74022 8.67512C2.80059 8.56275 2.88875 8.46732 2.99648 8.39773C4.09334 7.71336 5.19252 7.03336 6.28828 6.34691C7.78027 5.41224 9.27105 4.47528 10.7606 3.53602C11.8485 2.85194 12.924 2.14303 14.0296 1.49484C14.4899 1.21423 15.0154 1.05514 15.5556 1.03279C15.6983 0.96329 15.8548 1.04491 15.9983 0.98451C16.0062 0.981576 16.0146 0.980266 16.0231 0.980659C16.0316 0.981052 16.0398 0.98314 16.0475 0.986797C16.0829 1.03438 16.1083 1.08853 16.1222 1.14603C16.1361 1.20353 16.1381 1.2632 16.1281 1.32149C16.1293 5.59228 16.1292 9.86306 16.1278 14.1339C16.1281 14.1832 16.1249 14.2326 16.1184 14.2815C16.1146 14.3148 16.1028 14.3467 16.0839 14.3745C16.0651 14.4023 16.0397 14.4252 16.01 14.4413C15.0516 14.9121 14.1885 15.5666 13.2715 16.1172C13.2554 16.1264 13.2387 16.1345 13.2216 16.1416C13.1098 16.1701 13.0384 16.1059 12.9785 16.0157C12.8601 15.9611 12.7516 15.8876 12.6573 15.7981C12.4561 15.8158 12.3609 15.6209 12.2113 15.5353Z" fill="#0080FC"/>
<path d="M16.1101 0.985518L16.4736 0.980835C16.5653 1.03385 16.6708 0.979578 16.7634 1.0249C17.8871 1.22037 18.7882 1.94205 19.7428 2.52952C21.3481 3.51742 22.9409 4.52917 24.538 5.53256C26.0724 6.49647 27.6067 7.46047 29.1409 8.42456C29.2727 8.51874 29.3784 8.64425 29.4482 8.78949C29.4789 8.92586 29.4793 9.06722 29.4492 9.20375C29.3498 9.40882 29.1871 9.57741 28.9846 9.68528C25.7103 11.7721 22.4369 13.8608 19.1646 15.9514C19.0787 16.0063 18.9928 16.0612 18.907 16.1161C18.2352 15.7568 17.61 15.3086 16.9585 14.9104C16.7273 14.7542 16.4857 14.6135 16.2354 14.4894C16.1474 14.4507 16.0647 14.4091 16.0795 14.2797C16.0804 9.96417 16.081 5.64919 16.0815 1.3348C16.0611 1.21784 16.071 1.09771 16.1101 0.985518Z" fill="#006EC4"/>
<path d="M16.1014 14.3895C16.3038 14.4172 16.4942 14.5012 16.6502 14.6318C17.3522 15.0695 18.0526 15.5103 18.7513 15.9543C18.8094 16.0021 18.8617 16.0564 18.907 16.1163C18.2055 16.5692 17.5041 17.0223 16.8027 17.4755C16.7335 17.5203 16.6678 17.5713 16.6004 17.6195C16.5625 17.6887 16.5073 17.7471 16.4401 17.7892C16.3729 17.8313 16.2958 17.8557 16.2164 17.8599C16.0023 17.9968 15.8329 17.8481 15.6602 17.7501C15.4939 17.6557 15.3354 17.5449 15.1735 17.4413C15.0066 17.4337 14.9196 17.2763 14.7898 17.1993L14.3577 16.8951C14.1765 16.8601 14.0163 16.7563 13.9115 16.606L13.3139 16.2255C13.2843 16.225 13.256 16.2133 13.2347 16.193C13.2134 16.1726 13.2008 16.145 13.1993 16.1157C13.5485 15.8416 13.9182 15.594 14.3052 15.3751C14.7153 15.1036 15.1316 14.8433 15.5477 14.5828C15.6924 14.4683 15.8687 14.3998 16.0535 14.3863C16.0708 14.3629 16.0867 14.365 16.1014 14.3895Z" fill="#00539A"/>
</g>
<defs>
<clipPath id="clip0_2254_4002">
<rect width="30.6521" height="36.4078" fill="white" transform="translate(0.767029 0.980591)"/>
</clipPath>
</defs>
</svg>
